<svg width="115" height="115" viewBox="0 0 115 115" fill="none" xmlns="http://www.w3.org/2000/svg">
<path d="M68.2049 7.1875C68.2049 3.21191 64.7197 0 60.4058 0C56.0919 0 52.6066 3.21191 52.6066 7.1875V53.9062C52.6066 55.8828 50.8518 57.5 48.707 57.5C46.5622 57.5 44.8074 55.8828 44.8074 53.9062V14.375C44.8074 10.3994 41.3222 7.1875 37.0082 7.1875C32.6943 7.1875 29.2091 10.3994 29.2091 14.375V75.4688C29.2091 75.8057 29.2091 76.165 29.2334 76.502L14.4881 63.5645C10.5885 60.1504 4.42231 60.2852 0.693325 63.8789C-3.03566 67.4727 -2.86505 73.1553 1.03454 76.5918L28.4291 100.625C38.9337 109.856 52.8991 115 67.425 115H72.1045C95.7945 115 115 97.3008 115 75.4688V28.75C115 24.7744 111.515 21.5625 107.201 21.5625C102.887 21.5625 99.4016 24.7744 99.4016 28.75V53.9062C99.4016 55.8828 97.6468 57.5 95.5021 57.5C93.3573 57.5 91.6025 55.8828 91.6025 53.9062V14.375C91.6025 10.3994 88.1172 7.1875 83.8033 7.1875C79.4894 7.1875 76.0041 10.3994 76.0041 14.375V53.9062C76.0041 55.8828 74.2493 57.5 72.1045 57.5C69.9598 57.5 68.2049 55.8828 68.2049 53.9062V7.1875Z" fill="#46352A"/>
</svg>
