<svg width="255" height="67" viewBox="0 0 255 67" fill="none" xmlns="http://www.w3.org/2000/svg">
<path d="M32.1432 5.97978L28.6257 3.87207L27.9557 7.9172C26.8893 14.3045 22.526 20.2396 17.7131 24.4104C8.29125 32.5788 6.22821 41.4563 9.1455 48.7844C11.9372 55.7971 19.0224 60.5987 26.2138 61.3999L27.8776 61.5842C23.7627 59.0689 21.1217 53.1924 22.043 48.8012C22.9531 44.4852 26.0574 40.4429 32.0204 36.7132L35.027 34.8372L36.1493 38.2012C36.8109 40.1889 37.9555 41.7857 39.1196 43.4076C39.678 44.1893 40.2447 44.9794 40.7639 45.8197C42.559 48.7369 43.0335 51.9809 41.875 55.1997C40.8197 58.1253 39.0805 60.4257 36.6825 61.7014L39.3904 61.3999C46.1407 60.649 51.0959 58.3403 54.3147 54.4794C57.5055 50.652 58.625 45.7247 58.625 40.4792C58.625 35.5938 56.6178 30.5576 54.2505 26.3673C51.4755 21.4596 47.8547 17.3837 43.9018 13.4335C43.2178 14.8014 43.2708 15.3542 41.8638 17.5512C40.0367 12.6992 36.6072 8.61672 32.1432 5.97978Z" fill="#46352A"/>
<path d="M76.016 28.2H77.336V43.752H84.272V45H76.016V28.2ZM86.5132 28.2H87.8332V39.576C87.8332 40.92 88.1852 41.992 88.8892 42.792C89.5932 43.592 90.5932 43.992 91.8892 43.992C93.1852 43.992 94.1852 43.592 94.8892 42.792C95.5932 41.992 95.9452 40.92 95.9452 39.576V28.2H97.2652V39.576C97.2652 40.408 97.1452 41.176 96.9052 41.88C96.6652 42.568 96.3132 43.16 95.8492 43.656C95.3852 44.152 94.8172 44.544 94.1452 44.832C93.4892 45.104 92.7372 45.24 91.8892 45.24C91.0412 45.24 90.2812 45.104 89.6092 44.832C88.9532 44.544 88.3932 44.152 87.9292 43.656C87.4652 43.16 87.1132 42.568 86.8732 41.88C86.6332 41.176 86.5132 40.408 86.5132 39.576V28.2ZM101.884 45V43.752H110.212V45H101.884ZM101.884 29.448V28.2H110.212V29.448H101.884ZM101.884 36.408V35.16H109.732V36.408H101.884ZM101.188 28.2H102.508V45H101.188V28.2ZM113.888 28.2H115.208V39.576C115.208 40.92 115.56 41.992 116.264 42.792C116.968 43.592 117.968 43.992 119.264 43.992C120.56 43.992 121.56 43.592 122.264 42.792C122.968 41.992 123.32 40.92 123.32 39.576V28.2H124.64V39.576C124.64 40.408 124.52 41.176 124.28 41.88C124.04 42.568 123.688 43.16 123.224 43.656C122.76 44.152 122.192 44.544 121.52 44.832C120.864 45.104 120.112 45.24 119.264 45.24C118.416 45.24 117.656 45.104 116.984 44.832C116.328 44.544 115.768 44.152 115.304 43.656C114.84 43.16 114.488 42.568 114.248 41.88C114.008 41.176 113.888 40.408 113.888 39.576V28.2ZM131.419 36.984H132.883L138.619 45H136.987L131.419 36.984ZM128.563 28.2H129.883V45H128.563V28.2ZM129.259 29.376V28.2H132.403C133.491 28.2 134.459 28.392 135.307 28.776C136.171 29.16 136.851 29.712 137.347 30.432C137.843 31.152 138.091 32.032 138.091 33.072C138.091 34.096 137.843 34.976 137.347 35.712C136.851 36.448 136.171 37.008 135.307 37.392C134.459 37.76 133.491 37.944 132.403 37.944H129.259V36.768H132.403C133.251 36.768 134.003 36.632 134.659 36.36C135.331 36.072 135.851 35.656 136.219 35.112C136.587 34.552 136.771 33.872 136.771 33.072C136.771 32.272 136.579 31.6 136.195 31.056C135.827 30.512 135.315 30.096 134.659 29.808C134.003 29.52 133.251 29.376 132.403 29.376H129.259ZM151.273 35.376C151.017 35.072 150.713 34.736 150.361 34.368C150.025 33.984 149.729 33.552 149.473 33.072C149.233 32.592 149.113 32.056 149.113 31.464C149.113 30.776 149.273 30.168 149.593 29.64C149.913 29.112 150.361 28.696 150.937 28.392C151.529 28.088 152.225 27.936 153.025 27.936C153.841 27.936 154.521 28.112 155.065 28.464C155.625 28.8 156.049 29.24 156.337 29.784C156.625 30.328 156.769 30.904 156.769 31.512C156.769 31.912 156.689 32.304 156.529 32.688C156.369 33.056 156.137 33.424 155.833 33.792C155.545 34.144 155.185 34.488 154.753 34.824C154.321 35.16 153.825 35.496 153.265 35.832C152.833 36.088 152.345 36.36 151.801 36.648C151.273 36.92 150.761 37.232 150.265 37.584C149.785 37.936 149.385 38.36 149.065 38.856C148.745 39.336 148.585 39.928 148.585 40.632C148.585 41.352 148.761 41.976 149.113 42.504C149.465 43.016 149.937 43.408 150.529 43.68C151.137 43.952 151.809 44.088 152.545 44.088C153.409 44.088 154.217 43.896 154.969 43.512C155.721 43.112 156.425 42.592 157.081 41.952C157.737 41.312 158.369 40.6 158.977 39.816C159.585 39.032 160.177 38.232 160.753 37.416L161.737 38.016C161.097 38.848 160.457 39.696 159.817 40.56C159.177 41.408 158.489 42.184 157.753 42.888C157.033 43.592 156.241 44.16 155.377 44.592C154.513 45.024 153.545 45.24 152.473 45.24C151.561 45.24 150.705 45.064 149.905 44.712C149.121 44.344 148.481 43.824 147.985 43.152C147.505 42.464 147.265 41.648 147.265 40.704C147.265 40 147.385 39.384 147.625 38.856C147.881 38.328 148.201 37.864 148.585 37.464C148.985 37.064 149.417 36.72 149.881 36.432C150.345 36.144 150.801 35.896 151.249 35.688C151.697 35.464 152.081 35.264 152.401 35.088C153.361 34.528 154.113 33.952 154.657 33.36C155.217 32.752 155.497 32.136 155.497 31.512C155.497 31.08 155.401 30.68 155.209 30.312C155.033 29.944 154.761 29.648 154.393 29.424C154.041 29.184 153.585 29.064 153.025 29.064C152.177 29.064 151.529 29.296 151.081 29.76C150.633 30.208 150.409 30.776 150.409 31.464C150.409 32.12 150.601 32.704 150.985 33.216C151.385 33.712 151.801 34.208 152.233 34.704L161.209 45H159.721L151.273 35.376ZM171.711 28.2H173.031V45H171.711V28.2ZM172.455 29.448V28.2H175.647C176.703 28.2 177.639 28.4 178.455 28.8C179.287 29.2 179.943 29.768 180.423 30.504C180.903 31.24 181.143 32.128 181.143 33.168C181.143 34.192 180.903 35.08 180.423 35.832C179.943 36.584 179.287 37.16 178.455 37.56C177.639 37.944 176.703 38.136 175.647 38.136H172.455V36.888H175.647C176.879 36.888 177.879 36.568 178.647 35.928C179.415 35.288 179.799 34.368 179.799 33.168C179.799 31.952 179.415 31.032 178.647 30.408C177.879 29.768 176.879 29.448 175.647 29.448H172.455ZM183.883 39.36L184.315 38.112H192.067L192.499 39.36H183.883ZM188.155 30.6L184.891 38.544L184.747 38.832L182.227 45H180.739L188.155 27.552L195.571 45H194.083L191.587 38.928L191.467 38.616L188.155 30.6ZM200.653 36.984H202.117L207.853 45H206.221L200.653 36.984ZM197.797 28.2H199.117V45H197.797V28.2ZM198.493 29.376V28.2H201.637C202.725 28.2 203.693 28.392 204.541 28.776C205.405 29.16 206.085 29.712 206.581 30.432C207.077 31.152 207.325 32.032 207.325 33.072C207.325 34.096 207.077 34.976 206.581 35.712C206.085 36.448 205.405 37.008 204.541 37.392C203.693 37.76 202.725 37.944 201.637 37.944H198.493V36.768H201.637C202.485 36.768 203.237 36.632 203.893 36.36C204.565 36.072 205.085 35.656 205.453 35.112C205.821 34.552 206.005 33.872 206.005 33.072C206.005 32.272 205.813 31.6 205.429 31.056C205.061 30.512 204.549 30.096 203.893 29.808C203.237 29.52 202.485 29.376 201.637 29.376H198.493ZM211.056 29.448V28.2H218.424V29.448H211.056ZM211.056 36.528V35.28H218.184V36.528H211.056ZM210.36 28.2H211.68V45H210.36V28.2ZM221.771 28.2H223.091V39.576C223.091 40.92 223.443 41.992 224.147 42.792C224.851 43.592 225.851 43.992 227.147 43.992C228.443 43.992 229.443 43.592 230.147 42.792C230.851 41.992 231.203 40.92 231.203 39.576V28.2H232.523V39.576C232.523 40.408 232.403 41.176 232.163 41.88C231.923 42.568 231.571 43.16 231.107 43.656C230.643 44.152 230.075 44.544 229.403 44.832C228.747 45.104 227.995 45.24 227.147 45.24C226.299 45.24 225.539 45.104 224.867 44.832C224.211 44.544 223.651 44.152 223.187 43.656C222.723 43.16 222.371 42.568 222.131 41.88C221.891 41.176 221.771 40.408 221.771 39.576V28.2ZM238.342 31.704L236.902 45H235.582L237.526 27.552L244.246 40.464L250.966 27.552L252.91 45H251.59L250.15 31.704L244.246 43.056L238.342 31.704Z" fill="#46352A"/>
</svg>
