<svg width="115" height="115" viewBox="0 0 115 115" fill="none" xmlns="http://www.w3.org/2000/svg">
<path d="M58 12.4922C43.998 12.4922 32.6093 23.8809 32.6093 37.8828C32.6093 51.8848 43.998 63.2734 58 63.2734C72.0019 63.2734 83.3906 51.8848 83.3906 37.8828C83.3906 23.8809 72.0019 12.4922 58 12.4922ZM56.373 18.5717L54.0734 25.4557L64.258 24.3887L63.2451 20.9791L66.1013 21.7699V25.5525L70.5629 25.8436L69.6902 22.449L72.0353 21.0908C76.83 25.1002 79.875 31.1283 79.875 37.8828C79.875 41.1383 79.167 44.2248 77.8974 46.9984L72.7939 47.8621V54.0102C71.8204 54.9036 70.768 55.707 69.6496 56.4105L67.459 53.0027L63.191 54.1668L64.3902 58.8125C62.3184 59.441 60.165 59.7595 58 59.7578C51.9427 59.7578 46.4693 57.3096 42.5123 53.3465L46.4107 52.809L49.0299 47.668L40.6877 43.4973L46.6047 38.4531L41.464 34.1855L36.2115 35.9361C36.8193 29.0127 40.6359 23.0254 46.1713 19.4678L47.2838 28.3654L56.373 18.5717ZM63.9668 31.1141L56.9023 35.6406L63.0754 41.1275L67.5338 39.8244L67.122 45.1742L75.2841 43.1166L72.1974 36.1209L67.2593 36.1895L71.649 32.4172L63.967 31.1141H63.9668ZM56.6283 39.0014L52.8558 40.6473L55.5306 42.6363L56.6283 39.0014ZM47.7685 39.6174L45.1498 42.7209L52.4051 47.8201L47.7685 39.6174ZM59.4404 41.3332L56.7656 46.3404L63.2129 50.7299L60.9492 47.5061L63.7613 44.1453L59.4404 41.3332ZM19.7519 46.6838C18.0297 46.657 16.267 48.8504 16.2568 54.4732C16.2416 63.0969 15.406 65.5311 19.3968 75.284C22.3232 82.4359 23.6355 87.933 33 92.375C34.1093 96.2855 33.6666 97.2051 32.914 100.547C32.2117 103.667 39.442 104.24 44.7371 101.612C50.4189 98.5127 49.9422 89.9797 48.9271 84.1932C47.7467 77.4639 44.0326 76.0652 40.8133 73.1908C37.4705 68.4105 36.6926 59.7508 31.2711 56.2574C30.1388 55.5279 24.3629 54.7873 32.2988 74.6055C21.8357 72.0141 23.7416 60.0014 22.9849 51.1074C22.7595 48.4588 21.2715 46.707 19.7519 46.6836V46.6838ZM96.248 46.6838C94.7285 46.7072 93.2404 48.4588 93.015 51.1076C92.2584 60.0014 94.1642 72.0141 83.7011 74.6055C91.6373 54.7871 85.8611 55.5279 84.7289 56.2574C79.3074 59.7508 78.5297 68.4105 75.1867 73.191C71.9675 76.0652 68.2531 77.4639 67.0728 84.1932C66.0578 89.9797 65.581 98.5127 71.2629 101.612C76.558 104.24 83.7882 103.667 83.0857 100.547C82.3334 97.2051 81.8906 96.2855 83 92.375C92.3644 87.933 93.6767 82.4359 96.6031 75.284C100.594 65.5311 99.7584 63.0969 99.7431 54.4734C99.733 48.8504 97.9703 46.657 96.248 46.6838Z" fill="#46352A"/>
</svg>
