<svg width="115" height="115" viewBox="0 0 115 115" fill="none" xmlns="http://www.w3.org/2000/svg">
<path d="M92.274 71.4573C87.9656 74.0762 83.0173 75.4536 77.9754 75.4374C73.7514 75.404 69.5753 74.5401 65.6848 72.8948C62.6863 77.1279 61.0815 82.1902 61.0938 87.3776V100.625C61.0948 101.118 60.9946 101.605 60.7993 102.058C60.604 102.51 60.3178 102.917 59.9584 103.254C59.5991 103.591 59.1743 103.851 58.7104 104.017C58.2465 104.183 57.7535 104.251 57.2619 104.219C56.3382 104.138 55.479 103.712 54.8567 103.024C54.2343 102.337 53.8948 101.44 53.9063 100.513V94.9245L36.5574 77.5756C33.9785 78.5378 31.251 79.041 28.4984 79.0626C24.7091 79.0724 20.9906 78.0355 17.7531 76.0663C7.96466 70.1186 2.69533 56.4309 3.71505 39.437C3.7664 38.5578 4.13879 37.7281 4.76153 37.1053C5.38426 36.4826 6.21399 36.1102 7.09318 36.0589C24.0871 35.0571 37.7748 40.3085 43.7045 50.0969C46.0342 53.9336 47.0513 58.4246 46.602 62.8907C46.574 63.2367 46.4465 63.5672 46.2347 63.8423C46.0229 64.1174 45.736 64.3252 45.4086 64.4407C45.0812 64.5561 44.7273 64.5743 44.3899 64.493C44.0524 64.4116 43.7457 64.2342 43.5068 63.9823L34.8818 54.953C34.2024 54.3075 33.2977 53.9529 32.3606 53.9649C31.4235 53.9769 30.5281 54.3545 29.8654 55.0172C29.2027 55.6799 28.8251 56.5753 28.8131 57.5124C28.8011 58.4495 29.1557 59.3542 29.8012 60.0337L54.0051 84.853C54.032 84.5026 54.0635 84.1522 54.0994 83.8063C54.8853 77.1433 57.8255 70.9191 62.4729 66.0801L85.1988 42.0649C85.8732 41.3912 86.2522 40.4772 86.2527 39.5239C86.2531 38.5707 85.8748 37.6563 85.2011 36.982C84.5273 36.3077 83.6133 35.9286 82.6601 35.9282C81.7068 35.9278 80.7925 36.306 80.1182 36.9798L58.1065 60.2583C57.8861 60.4916 57.6073 60.6617 57.299 60.7509C56.9907 60.84 56.6641 60.845 56.3532 60.7652C56.0423 60.6854 55.7585 60.5238 55.5312 60.2972C55.3039 60.0706 55.1415 59.7873 55.0607 59.4766C52.9314 51.6243 53.8703 43.8079 57.9357 37.0966C65.9588 23.8536 84.6283 16.7649 107.88 18.1305C108.759 18.1819 109.589 18.5543 110.212 19.177C110.834 19.7998 111.207 20.6295 111.258 21.5087C112.606 44.7647 105.517 63.4342 92.274 71.4573Z" fill="#46352A"/>
</svg>
